<svg width="75" height="24" viewBox="0 0 75 24" fill="none" xmlns="http://www.w3.org/2000/svg">
<g clip-path="url(#clip0_4676_17144)">
<path fill-rule="evenodd" clip-rule="evenodd" d="M17.9554 5.75222C17.3298 6.66494 16.2678 7.26544 15.0629 7.26544C14.9493 7.26544 14.8369 7.26005 14.726 7.24961C14.9917 7.89257 15.1381 8.59556 15.1381 9.33213C15.1381 12.394 12.6097 14.8761 9.49052 14.8761C6.37149 14.8761 3.84294 12.394 3.84294 9.33213C3.84294 6.27031 6.37149 3.7882 9.49052 3.7882C10.2348 3.7882 10.9455 3.92964 11.5963 4.18648C11.5849 4.07436 11.5791 3.96064 11.5791 3.8456C11.5791 2.67532 12.178 1.64237 13.0912 1.02584C11.994 0.571528 10.7883 0.320312 9.52263 0.320312C4.44789 0.320312 0.333984 4.35869 0.333984 9.34035C0.333984 14.3219 4.44789 18.3604 9.52263 18.3604C14.5975 18.3604 18.7113 14.3219 18.7113 9.34035C18.7113 8.06517 18.4416 6.85187 17.9554 5.75222Z" fill="#714FFF"/>
<path fill-rule="evenodd" clip-rule="evenodd" d="M16.8987 19.9727H2.14657C1.1455 19.9727 0.333984 20.8379 0.333984 21.9055C0.333984 22.973 1.1455 23.8384 2.14657 23.8384H16.8987C17.8998 23.8384 18.7113 22.973 18.7113 21.9055C18.7113 20.8379 17.8998 19.9727 16.8987 19.9727Z" fill="#714FFF"/>
<path opacity="0.50365" fill-rule="evenodd" clip-rule="evenodd" d="M9.68792 12.5619C7.78487 12.5619 6.24219 11.0476 6.24219 9.17944C6.24219 7.31127 7.78487 5.79688 9.68792 5.79688C11.5909 5.79688 13.1337 7.31127 13.1337 9.17944C13.1337 11.0476 11.5909 12.5619 9.68792 12.5619ZM9.67263 7.06459C8.49652 7.06459 7.54318 8.00045 7.54318 9.15493C7.54318 10.3095 8.49652 11.2453 9.67263 11.2453C10.8486 11.2453 11.8021 10.3095 11.8021 9.15493C11.8021 8.00045 10.8486 7.06459 9.67263 7.06459Z" fill="#714FFF"/>
<path opacity="0.50365" fill-rule="evenodd" clip-rule="evenodd" d="M15.168 6.60584C15.0077 6.60584 14.8233 6.58833 14.6113 6.54816V3.57058C14.6113 3.57058 14.7692 2.41797 15.8751 2.41797C16.9807 2.41797 18.5154 2.41797 18.5154 2.41797L18.5492 3.2344C18.5492 3.2344 18.583 4.13489 17.5337 4.13489C16.4843 4.13489 16.4843 4.13489 16.4843 4.13489C16.4843 4.13489 16.4627 4.12546 16.4322 4.12546C16.3595 4.12546 16.2361 4.1792 16.2361 4.54308C16.2361 5.05935 16.2361 5.80372 16.2361 5.80372C16.2361 5.80372 16.2534 6.60584 15.168 6.60584Z" fill="#714FFF"/>
<path fill-rule="evenodd" clip-rule="evenodd" d="M14.7898 0.802086C14.7898 0.802086 14.7898 1.54647 14.7898 2.06276C14.7898 2.57902 14.5415 2.47094 14.5415 2.47094C14.5415 2.47094 14.5415 2.47094 13.4922 2.47094C12.4428 2.47094 12.4767 3.37145 12.4767 3.37145L12.5105 4.18789C12.5105 4.18789 14.0451 4.18789 15.1508 4.18789C16.2566 4.18789 16.4146 3.03526 16.4146 3.03526V0.0576906C14.7672 -0.254498 14.7898 0.802086 14.7898 0.802086Z" fill="#714FFF"/>
<path fill-rule="evenodd" clip-rule="evenodd" d="M30.0557 17.5606L25.7714 7.42556C25.677 7.20152 25.6016 6.97766 25.6016 6.73469C25.6016 5.93209 26.2433 5.31641 27.0549 5.31641C27.8097 5.31641 28.3004 5.74536 28.5269 6.32412L31.8296 14.7794L35.1703 6.23074C35.359 5.7643 35.8685 5.31641 36.5669 5.31641C37.3594 5.31641 38.0013 5.91354 38.0013 6.69739C38.0013 6.92143 37.9258 7.1642 37.8502 7.332L33.5282 17.5606C33.2263 18.27 32.679 18.6991 31.8863 18.6991H31.6976C30.905 18.6991 30.3576 18.27 30.0557 17.5606Z" fill="#714FFF"/>
<path fill-rule="evenodd" clip-rule="evenodd" d="M40.1074 6.7637C40.1074 5.95529 40.7272 5.31641 41.5112 5.31641C42.295 5.31641 42.9148 5.95529 42.9148 6.7637V17.2515C42.9148 18.0599 42.295 18.6991 41.5112 18.6991C40.7272 18.6991 40.1074 18.0599 40.1074 17.2515V6.7637Z" fill="#714FFF"/>
<path fill-rule="evenodd" clip-rule="evenodd" d="M46.0319 17.1378C45.7132 16.9148 45.4883 16.5057 45.4883 16.0597C45.4883 15.3161 46.0882 14.7398 46.8382 14.7398C47.2131 14.7398 47.4757 14.8703 47.6631 15.0001C48.6569 15.725 49.7445 16.171 51.0198 16.171C52.2008 16.171 52.9135 15.7065 52.9135 14.9444V14.9073C52.9135 14.1823 52.4634 13.8106 50.2696 13.2532C47.6257 12.584 45.9195 11.8589 45.9195 9.27546V9.2383C45.9195 6.87773 47.8321 5.31641 50.5134 5.31641C52.107 5.31641 53.4946 5.72528 54.6759 6.46887C54.9949 6.65464 55.3135 7.0452 55.3135 7.60267C55.3135 8.3459 54.7136 8.92222 53.9634 8.92222C53.6822 8.92222 53.4572 8.84774 53.2321 8.71798C52.276 8.16013 51.3758 7.84407 50.4758 7.84407C49.3696 7.84407 48.7882 8.3459 48.7882 8.97786V9.01539C48.7882 9.87008 49.3507 10.149 51.6196 10.7251C54.2821 11.4127 55.7823 12.3608 55.7823 14.6285V14.6657C55.7823 17.2494 53.7948 18.6991 50.9631 18.6991C49.2383 18.6991 47.4944 18.1785 46.0319 17.1378Z" fill="#714FFF"/>
<path fill-rule="evenodd" clip-rule="evenodd" d="M58.3555 6.7637C58.3555 5.95529 58.9754 5.31641 59.7594 5.31641C60.5434 5.31641 61.163 5.95529 61.163 6.7637V17.2515C61.163 18.0599 60.5434 18.6991 59.7594 18.6991C58.9754 18.6991 58.3555 18.0599 58.3555 17.2515V6.7637Z" fill="#714FFF"/>
<path fill-rule="evenodd" clip-rule="evenodd" d="M67.7195 8.39422H65.029C64.3201 8.39422 63.7383 7.80909 63.7383 7.09573C63.7383 6.38218 64.3201 5.79688 65.029 5.79688H73.2094C73.9186 5.79688 74.5003 6.38218 74.5003 7.09573C74.5003 7.80909 73.9186 8.39422 73.2094 8.39422H70.5191V17.3014C70.5191 18.0881 69.901 18.71 69.1193 18.71C68.3376 18.71 67.7195 18.0881 67.7195 17.3014V8.39422Z" fill="#714FFF"/>
</g>
<defs>
<clipPath id="clip0_4676_17144">
<rect width="75" height="24" fill="white"/>
</clipPath>
</defs>
</svg>