<svg width="19" height="24" viewBox="0 19 24" fill="none" xmlns="http://www.w3.org/2000/svg">
<g clip-path="url(#clip_icon)">
<path fill-rule="evenodd" clip-rule="evenodd" d="M17.9554 5.75222C17.3298 6.66494 16.2678 7.26544 15.0629 7.26544C14.9493 7.26544 14.8369 7.26005 14.726 7.24961C14.9917 7.89257 15.1381 8.59556 15.1381 9.33213C15.1381 12.394 12.6097 14.8761 9.49052 14.8761C6.37149 14.8761 3.84294 12.394 3.84294 9.33213C3.84294 6.27031 6.37149 3.7882 9.49052 3.7882C10.2348 3.7882 10.9455 3.92964 11.5963 4.18648C11.5849 4.07436 11.5791 3.96064 11.5791 3.8456C11.5791 2.67532 12.178 1.64237 13.0912 1.02584C11.994 0.571528 10.7883 0.320312 9.52263 0.320312C4.44789 0.320312 0.333984 4.35869 0.333984 9.34035C0.333984 14.3219 4.44789 18.3604 9.52263 18.3604C14.5975 18.3604 18.7113 14.3219 18.7113 9.34035C18.7113 8.06517 18.4416 6.85187 17.9554 5.75222Z" fill="#714FFF"/>
<path fill-rule="evenodd" clip-rule="evenodd" d="M16.8987 19.9727H2.14657C1.1455 19.9727 0.333984 20.8379 0.333984 21.9055C0.333984 22.973 1.1455 23.8384 2.14657 23.8384H16.8987C17.8998 23.8384 18.7113 22.973 18.7113 21.9055C18.7113 20.8379 17.8998 19.9727 16.8987 19.9727Z" fill="#714FFF"/>
<path opacity="0.50365" fill-rule="evenodd" clip-rule="evenodd" d="M9.68792 12.5619C7.78487 12.5619 6.24219 11.0476 6.24219 9.17944C6.24219 7.31127 7.78487 5.79688 9.68792 5.79688C11.5909 5.79688 13.1337 7.31127 13.1337 9.17944C13.1337 11.0476 11.5909 12.5619 9.68792 12.5619ZM9.67263 7.06459C8.49652 7.06459 7.54318 8.00045 7.54318 9.15493C7.54318 10.3095 8.49652 11.2453 9.67263 11.2453C10.8486 11.2453 11.8021 10.3095 11.8021 9.15493C11.8021 8.00045 10.8486 7.06459 9.67263 7.06459Z" fill="#714FFF"/>
<path opacity="0.50365" fill-rule="evenodd" clip-rule="evenodd" d="M15.168 6.60584C15.0077 6.60584 14.8233 6.58833 14.6113 6.54816V3.57058C14.6113 3.57058 14.7692 2.41797 15.8751 2.41797C16.9807 2.41797 18.5154 2.41797 18.5154 2.41797L18.5492 3.2344C18.5492 3.2344 18.583 4.13489 17.5337 4.13489C16.4843 4.13489 16.4843 4.13489 16.4843 4.13489C16.4843 4.13489 16.4627 4.12546 16.4322 4.12546C16.3595 4.12546 16.2361 4.1792 16.2361 4.54308C16.2361 5.05935 16.2361 5.80372 16.2361 5.80372C16.2361 5.80372 16.2534 6.60584 15.168 6.60584Z" fill="#714FFF"/>
<path fill-rule="evenodd" clip-rule="evenodd" d="M14.7898 0.802086C14.7898 0.802086 14.7898 1.54647 14.7898 2.06276C14.7898 2.57902 14.5415 2.47094 14.5415 2.47094C14.5415 2.47094 14.5415 2.47094 13.4922 2.47094C12.4428 2.47094 12.4767 3.37145 12.4767 3.37145L12.5105 4.18789C12.5105 4.18789 14.0451 4.18789 15.1508 4.18789C16.2566 4.18789 16.4146 3.03526 16.4146 3.03526V0.0576906C14.7672 -0.254498 14.7898 0.802086 14.7898 0.802086Z" fill="#714FFF"/>
</g>
<defs>
<clipPath id="clip_icon">
<rect width="19" height="24" fill="white"/>
</clipPath>
</defs>
</svg>